<svg preserveAspectRatio="none" width="100%" height="100%" overflow="visible" style="display: block;" viewBox="0 0 20 20" fill="none" xmlns="http://www.w3.org/2000/svg">
<g id="Frame 2043683228">
<path id="Logo" d="M17.4728 15.77C17.1829 16.4396 16.8398 17.056 16.4423 17.6227C15.9004 18.3953 15.4568 18.93 15.1149 19.227C14.5848 19.7144 14.017 19.964 13.4089 19.9782C12.9723 19.9782 12.4458 19.854 11.833 19.602C11.2181 19.3512 10.6531 19.227 10.1364 19.227C9.59456 19.227 9.01343 19.3512 8.39183 19.602C7.76929 19.854 7.26778 19.9853 6.88434 19.9983C6.30119 20.0232 5.71994 19.7665 5.13975 19.227C4.76944 18.904 4.30626 18.3503 3.75139 17.5659C3.15606 16.7283 2.66662 15.757 2.28318 14.6496C1.87252 13.4535 1.66667 12.2952 1.66667 11.1739C1.66667 9.88942 1.94422 8.78158 2.50015 7.8532C2.93707 7.1075 3.51832 6.51927 4.24581 6.08744C4.97329 5.65561 5.75934 5.43556 6.60584 5.42148C7.06902 5.42148 7.67642 5.56475 8.43123 5.84633C9.18391 6.12885 9.66721 6.27212 9.8791 6.27212C10.0375 6.27212 10.5744 6.1046 11.4846 5.77061C12.3453 5.46088 13.0717 5.33263 13.6668 5.38315C15.2793 5.51329 16.4908 6.14896 17.2965 7.29419C15.8543 8.16803 15.1409 9.39193 15.1551 10.962C15.1681 12.185 15.6118 13.2027 16.4837 14.0107C16.8789 14.3858 17.3202 14.6756 17.8111 14.8815C17.7047 15.1903 17.5923 15.486 17.4728 15.77V15.77ZM13.7744 1.21678C13.7744 2.17533 13.4242 3.07032 12.7262 3.89872C11.8838 4.88353 10.865 5.4526 9.76008 5.3628C9.746 5.2478 9.73784 5.12677 9.73784 4.99959C9.73784 4.07938 10.1384 3.09458 10.8498 2.28937C11.205 1.88167 11.6567 1.54268 12.2045 1.27226C12.7511 1.00588 13.2681 0.858561 13.7543 0.833333C13.7685 0.961477 13.7744 1.08963 13.7744 1.21676V1.21678Z" fill="var(--fill-0, #262626)"/>
</g>
</svg>
