<svg preserveAspectRatio="none" width="100%" height="100%" overflow="visible" style="display: block;" viewBox="0 0 28 28" fill="none" xmlns="http://www.w3.org/2000/svg">
<g id="ic_photos_filled" clip-path="url(#clip0_1509_2541)">
<g id="Vector">
</g>
<path id="Vector_2" d="M10.2818 13.5473C10.815 13.104 11.3528 13.104 11.8988 13.5602L12.0248 13.6745L17.8418 19.4915L17.9515 19.5883C18.176 19.7623 18.4562 19.8485 18.7397 19.8306C19.0232 19.8127 19.2904 19.692 19.4912 19.4912C19.692 19.2904 19.8127 19.0232 19.8306 18.7397C19.8485 18.4562 19.7623 18.176 19.5883 17.9515L19.4915 17.8418L17.9842 16.3333L18.3248 15.9915L18.4485 15.8807C18.9817 15.4373 19.5195 15.4373 20.0655 15.8935L20.1915 16.0078L25.6445 21.462C25.534 22.573 25.029 23.6076 24.2209 24.378C23.4128 25.1483 22.3553 25.6035 21.2403 25.6608L21 25.6667H7C5.84256 25.6666 4.72645 25.2364 3.86838 24.4596C3.01032 23.6828 2.47154 22.6149 2.35667 21.4632L10.1582 13.6582L10.2818 13.5473ZM21 2.33333C22.1973 2.33333 23.3488 2.79351 24.2163 3.61868C25.0838 4.44385 25.601 5.57088 25.6608 6.76667L25.6667 7V18.1825L21.8248 14.3418L21.6498 14.182C20.1845 12.9045 18.3248 12.9022 16.8712 14.1622L16.6915 14.3255L16.3333 14.6825L13.6582 12.0085L13.4832 11.8487C12.0178 10.5712 10.1582 10.5688 8.7045 11.8288L8.52483 11.9922L2.33333 18.1825V7C2.33333 5.80272 2.79351 4.65123 3.61868 3.78372C4.44385 2.91621 5.57088 2.39903 6.76667 2.33917L7 2.33333H21ZM17.5117 8.16667L17.3635 8.17483C17.0799 8.20856 16.8186 8.34511 16.629 8.55863C16.4394 8.77214 16.3346 9.04778 16.3346 9.33333C16.3346 9.61889 16.4394 9.89453 16.629 10.108C16.8186 10.3216 17.0799 10.4581 17.3635 10.4918L17.5 10.5L17.6482 10.4918C17.9317 10.4581 18.1931 10.3216 18.3827 10.108C18.5723 9.89453 18.677 9.61889 18.677 9.33333C18.677 9.04778 18.5723 8.77214 18.3827 8.55863C18.1931 8.34511 17.9317 8.20856 17.6482 8.17483L17.5117 8.16667Z" fill="var(--fill-0, #262626)"/>
</g>
<defs>
<clipPath id="clip0_1509_2541">
<rect width="28" height="28" fill="white"/>
</clipPath>
</defs>
</svg>
