<svg preserveAspectRatio="none" width="100%" height="100%" overflow="visible" style="display: block;" viewBox="0 0 43 28" fill="none" xmlns="http://www.w3.org/2000/svg">
<g id="Frame 2043683216">
<path id="Glass Icon" d="M40.2794 7.76959C40.2294 7.71531 38.9987 7.66864 38.8615 7.6496C35.6241 7.19294 32.0929 6.83295 28.6986 7.13818C25.1095 7.46103 22.2821 8.9429 18.5997 8.39244C15.9156 7.99149 13.3231 7.20056 10.5816 7.03914C7.75104 6.87295 4.51584 7.26627 1.8541 7.6496C1.68662 7.67341 0.374827 7.71055 0.320461 7.76959C0.282755 7.81102 0.306869 8.79052 0.316515 8.93385C0.322215 9.02147 0.62868 10.5314 0.671208 10.6062C0.884726 10.9819 1.32974 10.4681 1.70372 11.329C2.65468 13.5214 2.82567 18.1227 4.61449 19.5383C7.77209 22.0364 14.4889 21.3102 16.6995 17.5308C17.6513 15.9037 18.2388 12.9599 19.1657 11.5557C19.185 11.5266 19.5107 11.1681 19.5357 11.1605C19.779 11.0876 20.8098 11.0595 21.0645 11.1605C21.5771 11.3638 23.458 16.9784 24.2471 18.0327C26.6918 21.2997 32.9211 21.963 35.9853 19.5383C37.747 18.1446 37.9991 13.488 38.8965 11.329C39.2477 10.4838 39.7265 10.9543 39.9137 10.6376C40.0641 10.3829 40.1351 9.37955 40.1667 9.07004C40.1711 9.02528 40.2767 9.03909 40.2833 8.93385C40.2929 8.79004 40.3175 7.81102 40.2794 7.76959ZM2.21713 10.4986C1.69276 10.4986 1.26704 10.0367 1.26704 9.46669C1.26704 8.89671 1.69276 8.43482 2.21713 8.43482C2.74149 8.43482 3.16721 8.89671 3.16721 9.46669C3.16721 10.0367 2.74193 10.4986 2.21713 10.4986ZM12.9811 19.3064C8.8822 20.7769 4.44393 20.2483 3.66703 14.8394C2.71431 8.20625 5.47469 7.90673 10.9279 8.29339C11.9188 8.36387 14.3832 8.71243 15.293 9.02718C18.686 10.2 16.1549 18.1674 12.9811 19.3064ZM28.888 19.6831C27.1632 19.3164 25.9404 18.6103 25.0556 16.9037C23.6605 14.2113 22.3719 9.59669 26.2319 8.77671C28.3816 8.32006 31.3607 8.10101 33.5634 8.29339C36.4908 8.54957 36.8885 9.60479 37.0415 12.5714C37.3471 18.5103 34.1465 20.8002 28.888 19.6831ZM38.4221 10.4986C37.8973 10.4986 37.4721 10.0367 37.4721 9.46669C37.4721 8.89671 37.8973 8.43482 38.4221 8.43482C38.947 8.43482 39.3722 8.89671 39.3722 9.46669C39.3722 10.0367 38.947 10.4986 38.4221 10.4986Z" fill="var(--fill-0, black)" stroke="var(--stroke-0, black)" stroke-width="0.6"/>
<circle id="Ellipse 9" cx="38.467" cy="9" r="4" fill="var(--fill-0, #10B981)"/>
</g>
</svg>
