<svg preserveAspectRatio="none" width="100%" height="100%" overflow="visible" style="display: block;" viewBox="0 0 804 693" fill="none" xmlns="http://www.w3.org/2000/svg">
<g id="Frame 2131329549">
<g id="Vector 84" filter="url(#filter0_f_465_828)">
<path d="M462.797 418.397C454.337 410.853 452.091 412.902 437.284 375.009C436.674 372.711 432.818 368.071 432.617 366.925C432.416 365.779 430.075 359.41 428.519 356.716C427.247 354.513 426.945 355.239 424.838 353.452C419.644 349.045 412.6 346.414 413.118 339.209C413.659 331.676 414.682 321.377 418.854 315.73C422.729 310.482 429.159 305.444 453.158 300.879C469.562 297.758 498.859 292.491 518.125 289.881C537.391 287.27 546.355 287.314 555.679 288.053C565.002 288.793 574.4 290.186 583.185 291.951C591.97 293.717 599.903 295.793 616.918 301.871C633.933 307.95 659.263 317.734 679.436 327.389C699.609 337.045 714.183 346.29 724.824 353.791C735.464 361.293 742.183 366.677 748.131 372.956C759.92 385.402 770.687 397.65 776.861 410.697C782.679 422.991 787.563 434.492 788.814 445.691C790.071 456.932 791.202 469.097 787.682 480.101C781.699 498.801 774.683 515.454 758.927 525.912C749.749 532.004 738.988 538.441 722.347 544.563C711.823 548.434 697.13 553.236 680.562 556.941C663.995 560.646 646.095 563.177 632.959 564.346C619.824 565.516 611.699 565.33 603.569 564.5C595.439 563.669 587.544 562.237 576.871 559.24C566.197 556.243 552.985 552.189 544.023 548.229C529.878 541.979 520.059 537.318 513.489 530.857C502.222 519.776 492.844 508.069 493.558 490.893L493.588 490.162C494.472 468.919 495.193 451.589 491.615 445.919C486.464 437.752 478.341 432.257 462.797 418.397Z" fill="url(#paint0_linear_465_828)"/>
</g>
<g id="Vector 85" filter="url(#filter1_f_465_828)">
<path d="M504.011 343.658C512.458 356.528 516.125 354.63 522.229 409.545C522.222 412.775 525.65 420.218 525.511 421.791C525.371 423.365 526.204 432.543 527.298 436.625C528.192 439.963 528.844 439.116 530.979 442.201C536.244 449.807 544.56 455.736 541.348 465.006C537.99 474.697 533.028 487.848 525.57 493.791C518.641 499.312 508.435 503.662 475.347 501.215C452.731 499.543 412.446 496.154 386.253 492.806C360.06 489.459 348.316 486.25 336.345 482.003C324.374 477.755 312.535 472.625 301.631 467.22C290.726 461.816 281.049 456.304 260.864 442.349C240.679 428.394 210.889 406.654 187.819 386.896C164.748 367.139 148.879 349.887 137.557 336.306C126.235 322.725 119.314 313.3 113.718 302.971C102.627 282.501 92.8078 262.647 89.294 243.362C85.9826 225.188 83.6188 208.383 85.9133 193.252C88.2165 178.064 91.0086 161.708 99.4953 148.508C113.916 126.08 128.975 106.699 153.321 98.518C167.503 93.7524 183.882 89.0905 207.865 86.9091C223.031 85.5298 243.995 84.395 267.032 85.3587C290.069 86.3223 314.441 89.2942 332.084 92.3771C349.727 95.4599 360.321 98.5598 370.694 102.507C381.067 106.455 390.921 111.109 403.87 118.792C416.819 126.476 432.726 136.438 443.091 144.783C459.451 157.955 470.693 167.521 477.041 178.306C487.927 196.803 496.115 215.458 489.141 237.74L488.844 238.687C480.218 266.245 473.18 288.727 475.88 297.423C479.767 309.947 488.491 320.011 504.011 343.658Z" fill="url(#paint1_linear_465_828)"/>
</g>
</g>
<defs>
<filter id="filter0_f_465_828" x="405.091" y="279.616" width="392.948" height="293.557" filterUnits="userSpaceOnUse" color-interpolation-filters="sRGB">
<feFlood flood-opacity="0" result="BackgroundImageFix"/>
<feBlend mode="normal" in="SourceGraphic" in2="BackgroundImageFix" result="shape"/>
<feGaussianBlur stdDeviation="4" result="effect1_foregroundBlur_465_828"/>
</filter>
<filter id="filter1_f_465_828" x="0" y="3.8147e-06" width="627.065" height="586.913" filterUnits="userSpaceOnUse" color-interpolation-filters="sRGB">
<feFlood flood-opacity="0" result="BackgroundImageFix"/>
<feBlend mode="normal" in="SourceGraphic" in2="BackgroundImageFix" result="shape"/>
<feGaussianBlur stdDeviation="42.5" result="effect1_foregroundBlur_465_828"/>
</filter>
<linearGradient id="paint0_linear_465_828" x1="656.313" y1="308.153" x2="164.619" y2="534.791" gradientUnits="userSpaceOnUse">
<stop offset="0.317929" stop-color="#3464EA"/>
<stop offset="1" stop-color="#5280FF"/>
</linearGradient>
<linearGradient id="paint1_linear_465_828" x1="36.8119" y1="128.529" x2="513.007" y2="217.003" gradientUnits="userSpaceOnUse">
<stop stop-color="#2E63FF"/>
<stop offset="1" stop-color="#668BF2"/>
</linearGradient>
</defs>
</svg>
