<svg preserveAspectRatio="none" width="100%" height="100%" overflow="visible" style="display: block;" viewBox="0 0 16 16" fill="none" xmlns="http://www.w3.org/2000/svg">
<g id="Logo">
<path id="Vector" fill-rule="evenodd" clip-rule="evenodd" d="M15.0269 7.84089C15.0269 7.29725 14.9781 6.77452 14.8875 6.27271H7.66689V9.23831H11.793C11.6152 10.1966 11.0751 11.0086 10.2631 11.5522V13.4759H12.7408C14.1905 12.1412 15.0269 10.1757 15.0269 7.84089Z" fill="var(--fill-0, white)"/>
<path id="Vector_2" fill-rule="evenodd" clip-rule="evenodd" d="M7.66674 15.3331C9.73674 15.3331 11.4722 14.6466 12.7407 13.4757L10.263 11.552C9.57644 12.012 8.69826 12.2839 7.66674 12.2839C5.66992 12.2839 3.97977 10.9352 3.37689 9.1231H0.815527V11.1095C2.07704 13.6151 4.66977 15.3331 7.66674 15.3331Z" fill="var(--fill-0, white)"/>
<path id="Vector_3" fill-rule="evenodd" clip-rule="evenodd" d="M3.37692 9.12318C3.22358 8.66318 3.13646 8.17182 3.13646 7.66652C3.13646 7.16121 3.22358 6.66985 3.37692 6.20985V4.22349H0.815552C0.29631 5.25849 9.76563e-05 6.4294 9.76563e-05 7.66652C9.76563e-05 8.90364 0.29631 10.0745 0.815552 11.1095L3.37692 9.12318Z" fill="var(--fill-0, white)"/>
<path id="Vector_4" fill-rule="evenodd" clip-rule="evenodd" d="M7.66674 3.04929C8.79235 3.04929 9.80295 3.43611 10.5975 4.19581L12.7964 1.99687C11.4687 0.759746 9.73326 4.88281e-05 7.66674 4.88281e-05C4.66977 4.88281e-05 2.07704 1.71808 0.815527 4.22369L3.37689 6.21005C3.97977 4.39793 5.66992 3.04929 7.66674 3.04929Z" fill="var(--fill-0, white)"/>
<g id="Vector_5">
</g>
</g>
</svg>
