<svg preserveAspectRatio="none" width="100%" height="100%" overflow="visible" style="display: block;" viewBox="0 0 24 19" fill="none" xmlns="http://www.w3.org/2000/svg">
<g id="AI loader">
<path id="Star 1" d="M14.6126 1.41344C14.8607 0.77639 15.7622 0.776392 16.0103 1.41344L17.212 4.49852C17.72 5.80289 18.7722 6.82048 20.0928 7.28472L23.2987 8.41169C23.967 8.64664 23.967 9.59185 23.2987 9.8268L20.0928 10.9538C18.7722 11.418 17.72 12.4356 17.212 13.74L16.0103 16.825C15.7622 17.4621 14.8607 17.4621 14.6126 16.825L13.4109 13.74C12.9029 12.4356 11.8507 11.418 10.5301 10.9538L7.32423 9.8268C6.65587 9.59185 6.65587 8.64664 7.32424 8.41169L10.5301 7.28472C11.8507 6.82048 12.9029 5.80289 13.4109 4.49852L14.6126 1.41344Z" fill="var(--fill-0, #8558F2)"/>
<path id="Star 2" opacity="0.4" d="M4.58193 0.150913C4.6688 -0.0503043 4.95412 -0.0503045 5.04098 0.150913L5.46742 1.13872C5.65121 1.56444 6.01065 1.88949 6.45266 2.02968L7.56012 2.38094C7.79268 2.4547 7.79268 2.78378 7.56012 2.85754L6.45266 3.2088C6.01065 3.34899 5.65121 3.67404 5.46742 4.09977L5.04098 5.08757C4.95412 5.28879 4.6688 5.28879 4.58193 5.08757L4.15549 4.09977C3.9717 3.67404 3.61226 3.34899 3.17026 3.2088L2.06279 2.85754C1.83023 2.78378 1.83023 2.4547 2.06279 2.38094L3.17026 2.02968C3.61226 1.88949 3.9717 1.56444 4.15549 1.13872L4.58193 0.150913Z" fill="var(--fill-0, #8558F2)"/>
<path id="Star 3" opacity="0.7" d="M3.91654 9.79322C4.04384 9.4148 4.57908 9.4148 4.70638 9.79322L5.27211 11.475C5.51959 12.2107 6.07534 12.802 6.79426 13.0947L8.36333 13.7333C8.70944 13.8742 8.70944 14.3643 8.36333 14.5052L6.79426 15.1438C6.07534 15.4365 5.51959 16.0278 5.27211 16.7635L4.70638 18.4453C4.57908 18.8237 4.04384 18.8237 3.91654 18.4453L3.3508 16.7635C3.10332 16.0278 2.54757 15.4365 1.82865 15.1438L0.259582 14.5052C-0.0865281 14.3643 -0.0865276 13.8742 0.259582 13.7333L1.82865 13.0947C2.54758 12.802 3.10332 12.2107 3.3508 11.475L3.91654 9.79322Z" fill="var(--fill-0, #8558F2)"/>
</g>
</svg>
