<svg preserveAspectRatio="none" width="100%" height="100%" overflow="visible" style="display: block;" viewBox="0 0 43 24" fill="none" xmlns="http://www.w3.org/2000/svg">
<g id="Frame 2043683216">
<path id="Glass Icon" d="M40.2794 5.76959C40.2294 5.71531 38.9987 5.66864 38.8615 5.6496C35.6241 5.19294 32.0929 4.83295 28.6986 5.13818C25.1095 5.46103 22.2821 6.9429 18.5997 6.39244C15.9156 5.99149 13.3231 5.20056 10.5816 5.03914C7.75104 4.87295 4.51584 5.26627 1.8541 5.6496C1.68662 5.67341 0.374827 5.71055 0.320461 5.76959C0.282755 5.81102 0.306869 6.79052 0.316515 6.93385C0.322215 7.02147 0.62868 8.53143 0.671208 8.60619C0.884726 8.98189 1.32974 8.4681 1.70372 9.32903C2.65468 11.5214 2.82567 16.1227 4.61449 17.5383C7.77209 20.0364 14.4889 19.3102 16.6995 15.5308C17.6513 13.9037 18.2388 10.9599 19.1657 9.55569C19.185 9.52664 19.5107 9.16808 19.5357 9.16046C19.779 9.08761 20.8098 9.05951 21.0645 9.16046C21.5771 9.36379 23.458 14.9784 24.2471 16.0327C26.6918 19.2997 32.9211 19.963 35.9853 17.5383C37.747 16.1446 37.9991 11.488 38.8965 9.32903C39.2477 8.48381 39.7265 8.95428 39.9137 8.63762C40.0641 8.38286 40.1351 7.37955 40.1667 7.07004C40.1711 7.02528 40.2767 7.03909 40.2833 6.93385C40.2929 6.79004 40.3175 5.81102 40.2794 5.76959ZM2.21713 8.49857C1.69276 8.49857 1.26704 8.03668 1.26704 7.46669C1.26704 6.89671 1.69276 6.43482 2.21713 6.43482C2.74149 6.43482 3.16721 6.89671 3.16721 7.46669C3.16721 8.03668 2.74193 8.49857 2.21713 8.49857ZM12.9811 17.3064C8.8822 18.7769 4.44393 18.2483 3.66703 12.8394C2.71431 6.20625 5.47469 5.90673 10.9279 6.29339C11.9188 6.36387 14.3832 6.71243 15.293 7.02718C18.686 8.20001 16.1549 16.1674 12.9811 17.3064ZM28.888 17.6831C27.1632 17.3164 25.9404 16.6103 25.0556 14.9037C23.6605 12.2113 22.3719 7.59669 26.2319 6.77671C28.3816 6.32006 31.3607 6.10101 33.5634 6.29339C36.4908 6.54957 36.8885 7.60479 37.0415 10.5714C37.3471 16.5103 34.1465 18.8002 28.888 17.6831ZM38.4221 8.49857C37.8973 8.49857 37.4721 8.03668 37.4721 7.46669C37.4721 6.89671 37.8973 6.43482 38.4221 6.43482C38.947 6.43482 39.3722 6.89671 39.3722 7.46669C39.3722 8.03668 38.947 8.49857 38.4221 8.49857Z" fill="var(--fill-0, black)" stroke="var(--stroke-0, black)" stroke-width="0.6"/>
<circle id="Ellipse 9" cx="38.467" cy="6" r="4" fill="var(--fill-0, #10B981)"/>
</g>
</svg>
