<svg preserveAspectRatio="none" width="100%" height="100%" overflow="visible" style="display: block;" viewBox="0 0 24 24" fill="none" xmlns="http://www.w3.org/2000/svg">
<g id="Group">
<g id="Path">
</g>
<path id="Path_2" d="M12 8V12L14 14" stroke="var(--stroke-0, #0172CB)" stroke-width="2" stroke-linecap="round" stroke-linejoin="round"/>
<path id="Shape" d="M2.05515 10.8987C1.99918 11.4481 2.39922 11.9389 2.94866 11.9949C3.4981 12.0508 3.98888 11.6508 4.04485 11.1013L3.05 11L2.05515 10.8987ZM4.4893 14.6569C4.2998 14.1381 3.72565 13.8712 3.20689 14.0607C2.68813 14.2502 2.42121 14.8243 2.6107 15.3431L3.55 15L4.4893 14.6569ZM2.05 20C2.05 20.5523 2.49772 21 3.05 21C3.60228 21 4.05 20.5523 4.05 20H3.05H2.05ZM3.05 15V14C2.49772 14 2.05 14.4477 2.05 15H3.05ZM8.05 16C8.60228 16 9.05 15.5523 9.05 15C9.05 14.4477 8.60228 14 8.05 14V15V16ZM3.05 11L4.04485 11.1013C4.45724 7.05285 7.84313 3.95904 11.9123 3.91256L11.9009 2.91263L11.8895 1.91269C6.80299 1.97079 2.57063 5.83805 2.05515 10.8987L3.05 11ZM11.9009 2.91263L11.9123 3.91256C15.9815 3.86609 19.4371 6.88175 19.9419 10.9198L20.9342 10.7957L21.9264 10.6717C21.2955 5.62418 16.9759 1.8546 11.8895 1.91269L11.9009 2.91263ZM20.9342 10.7957L19.9419 10.9198C20.4466 14.9578 17.8396 18.7313 13.8842 19.6879L14.1193 20.6599L14.3543 21.6318C19.2986 20.4361 22.5574 15.7192 21.9264 10.6717L20.9342 10.7957ZM14.1193 20.6599L13.8842 19.6879C9.92881 20.6445 5.88555 18.4793 4.4893 14.6569L3.55 15L2.6107 15.3431C4.35602 20.1211 9.41009 22.8276 14.3543 21.6318L14.1193 20.6599ZM3.05 20H4.05V15H3.05H2.05V20H3.05ZM3.05 15V16H8.05V15V14H3.05V15Z" fill="var(--stroke-0, #0172CB)"/>
</g>
</svg>
