<svg preserveAspectRatio="none" width="100%" height="100%" overflow="visible" style="display: block;" viewBox="0 0 28 28" fill="none" xmlns="http://www.w3.org/2000/svg">
<g id="Frame" clip-path="url(#clip0_1511_2653)">
<g id="Vector">
</g>
<path id="Vector_2" d="M14.8248 2.6752L25.3248 13.1752C26.0598 13.9102 25.5394 15.1667 24.4999 15.1667H23.3333V22.1667C23.3333 23.095 22.9645 23.9852 22.3081 24.6416C21.6518 25.298 20.7615 25.6667 19.8333 25.6667H18.6666V17.5C18.6667 16.6073 18.3256 15.7483 17.7131 15.0987C17.1007 14.4492 16.2631 14.0582 15.3719 14.0059L15.1666 14H12.8333C11.905 14 11.0148 14.3688 10.3584 15.0252C9.70202 15.6815 9.33327 16.5718 9.33327 17.5V25.6667H8.1666C7.23834 25.6667 6.34811 25.298 5.69173 24.6416C5.03535 23.9852 4.6666 23.095 4.6666 22.1667V15.1667H3.49994C2.4616 15.1667 1.9401 13.9102 2.6751 13.1752L13.1751 2.6752C13.3939 2.45649 13.6906 2.33362 13.9999 2.33362C14.3093 2.33362 14.606 2.45649 14.8248 2.6752ZM15.1666 16.3334C15.476 16.3334 15.7728 16.4563 15.9916 16.6751C16.2104 16.8939 16.3333 17.1906 16.3333 17.5V25.6667H11.6666V17.5C11.6666 17.2143 11.7716 16.9385 11.9614 16.7249C12.1513 16.5114 12.413 16.375 12.6968 16.3415L12.8333 16.3334H15.1666Z" fill="var(--fill-0, #262626)"/>
</g>
<defs>
<clipPath id="clip0_1511_2653">
<rect width="28" height="28" fill="white"/>
</clipPath>
</defs>
</svg>
