<svg preserveAspectRatio="none" width="100%" height="100%" overflow="visible" style="display: block;" viewBox="0 0 20 20" fill="none" xmlns="http://www.w3.org/2000/svg">
<g id="Group">
<g id="Path">
</g>
<circle id="Oval" cx="10" cy="10.8333" r="2.5" stroke="var(--stroke-0, #A16207)" stroke-width="2" stroke-linecap="round" stroke-linejoin="round"/>
<path id="Shape" d="M4.16667 4.83333C3.61438 4.83333 3.16667 5.28105 3.16667 5.83333C3.16667 6.38562 3.61438 6.83333 4.16667 6.83333V5.83333V4.83333ZM10 4.33333C10.5523 4.33333 11 3.88562 11 3.33333C11 2.78105 10.5523 2.33333 10 2.33333V3.33333V4.33333ZM18.5 9.16667C18.5 8.61438 18.0523 8.16667 17.5 8.16667C16.9477 8.16667 16.5 8.61438 16.5 9.16667H17.5H18.5ZM4.16667 6.83333C4.71895 6.83333 5.16667 6.38562 5.16667 5.83333C5.16667 5.28105 4.71895 4.83333 4.16667 4.83333V5.83333V6.83333ZM4.16667 5.83333V6.83333H5.83333V5.83333V4.83333H4.16667V5.83333ZM5.83333 5.83333V6.83333C7.30609 6.83333 8.5 5.63943 8.5 4.16667H7.5H6.5C6.5 4.53486 6.20152 4.83333 5.83333 4.83333V5.83333ZM7.5 4.16667H8.5C8.5 4.25871 8.42538 4.33333 8.33333 4.33333V3.33333V2.33333C7.32081 2.33333 6.5 3.15414 6.5 4.16667H7.5ZM8.33333 3.33333V4.33333H10V3.33333V2.33333H8.33333V3.33333ZM17.5 9.16667H16.5V15H17.5H18.5V9.16667H17.5ZM17.5 15H16.5C16.5 15.3682 16.2015 15.6667 15.8333 15.6667V16.6667V17.6667C17.3061 17.6667 18.5 16.4728 18.5 15H17.5ZM15.8333 16.6667V15.6667H4.16667V16.6667V17.6667H15.8333V16.6667ZM4.16667 16.6667V15.6667C3.79848 15.6667 3.5 15.3682 3.5 15H2.5H1.5C1.5 16.4728 2.69391 17.6667 4.16667 17.6667V16.6667ZM2.5 15H3.5V7.5H2.5H1.5V15H2.5ZM2.5 7.5H3.5C3.5 7.13181 3.79848 6.83333 4.16667 6.83333V5.83333V4.83333C2.69391 4.83333 1.5 6.02724 1.5 7.5H2.5Z" fill="var(--stroke-0, #A16207)"/>
<path id="Path_2" d="M12.5 5H17.5" stroke="var(--stroke-0, #A16207)" stroke-width="2" stroke-linecap="round" stroke-linejoin="round"/>
<path id="Path_3" d="M15 2.5V7.5" stroke="var(--stroke-0, #A16207)" stroke-width="2" stroke-linecap="round" stroke-linejoin="round"/>
</g>
</svg>
